<svg width="70" height="70" viewBox="0 0 70 70" fill="none" xmlns="http://www.w3.org/2000/svg">
<path d="M34.9999 66.354C33.1624 66.354 31.4416 65.654 30.1583 64.3415L25.725 59.9082C25.375 59.5582 24.4416 59.179 23.9749 59.179H17.6749C13.8833 59.179 10.8207 56.1162 10.8207 52.3246V46.0248C10.8207 45.5582 10.4416 44.6248 10.0916 44.2748L5.65825 39.8415C4.37492 38.5582 3.64575 36.8373 3.64575 34.9998C3.64575 33.1623 4.34575 31.4412 5.65825 30.1579L10.0916 25.7246C10.4416 25.3746 10.8207 24.4413 10.8207 23.9747V17.6749C10.8207 13.8832 13.8833 10.8205 17.6749 10.8205H23.9749C24.4416 10.8205 25.375 10.4413 25.725 10.0913L30.1583 5.65791C32.7249 3.09124 37.2749 3.09124 39.8416 5.65791L44.2749 10.0913C44.6249 10.4413 45.5583 10.8205 46.0249 10.8205H52.3249C56.1166 10.8205 59.1791 13.8832 59.1791 17.6749V23.9747C59.1791 24.4413 59.5583 25.3746 59.9083 25.7246L64.3416 30.1579C65.6249 31.4412 66.3541 33.1623 66.3541 34.9998C66.3541 36.8373 65.6541 38.5582 64.3416 39.8415L59.9083 44.2748C59.5583 44.6248 59.1791 45.5582 59.1791 46.0248V52.3246C59.1791 56.1162 56.1166 59.179 52.3249 59.179H46.0249C45.5583 59.179 44.6249 59.5582 44.2749 59.9082L39.8416 64.3415C38.5583 65.654 36.8374 66.354 34.9999 66.354ZM13.1832 41.1832C14.3499 42.3498 15.1957 44.3915 15.1957 46.0248V52.3246C15.1957 53.6954 16.3041 54.804 17.6749 54.804H23.9749C25.6083 54.804 27.65 55.6496 28.8166 56.8162L33.2499 61.2498C34.1833 62.1832 35.8166 62.1832 36.7499 61.2498L41.1833 56.8162C42.3499 55.6496 44.3916 54.804 46.0249 54.804H52.3249C53.6958 54.804 54.8041 53.6954 54.8041 52.3246V46.0248C54.8041 44.3915 55.6499 42.3498 56.8166 41.1832L61.2499 36.7495C61.7166 36.2829 61.9791 35.6707 61.9791 34.9998C61.9791 34.329 61.7166 33.7165 61.2499 33.2498L56.8166 28.8164C55.6499 27.6498 54.8041 25.608 54.8041 23.9747V17.6749C54.8041 16.3041 53.6958 15.1955 52.3249 15.1955H46.0249C44.3916 15.1955 42.3499 14.3498 41.1833 13.1831L36.7499 8.74975C35.8166 7.81642 34.1833 7.81642 33.2499 8.74975L28.8166 13.1831C27.65 14.3498 25.6083 15.1955 23.9749 15.1955H17.6749C16.3041 15.1955 15.1957 16.3041 15.1957 17.6749V23.9747C15.1957 25.608 14.3499 27.6498 13.1832 28.8164L8.74992 33.2498C8.28325 33.7165 8.02075 34.329 8.02075 34.9998C8.02075 35.6707 8.28325 36.2829 8.74992 36.7495L13.1832 41.1832Z" fill="#F2FAFA"/>
<path d="M43.7505 46.6663C42.1172 46.6663 40.8047 45.3538 40.8047 43.7497C40.8047 42.1455 42.1172 40.833 43.7214 40.833C45.3255 40.833 46.638 42.1455 46.638 43.7497C46.638 45.3538 45.3547 46.6663 43.7505 46.6663Z" fill="#F2FAFA"/>
<path d="M26.2791 29.1663C24.6458 29.1663 23.3333 27.8538 23.3333 26.2497C23.3333 24.6455 24.6458 23.333 26.2499 23.333C27.8541 23.333 29.1666 24.6455 29.1666 26.2497C29.1666 27.8538 27.8833 29.1663 26.2791 29.1663Z" fill="#03A6A6"/>
<path d="M26.2498 45.9372C25.6956 45.9372 25.1415 45.7331 24.704 45.2956C23.8581 44.4497 23.8581 43.0494 24.704 42.2036L42.2038 24.7037C43.0497 23.8579 44.4497 23.8579 45.2955 24.7037C46.1413 25.5495 46.1413 26.9497 45.2955 27.7956L27.7956 45.2956C27.3581 45.7331 26.804 45.9372 26.2498 45.9372Z" fill="#03A6A6"/>
</svg>
