<svg width="70" height="70" viewBox="0 0 70 70" fill="none" xmlns="http://www.w3.org/2000/svg">
<path d="M30.7418 63.9918C30.071 63.9918 29.4293 63.7002 28.9919 63.1168L26.046 59.1793C25.4335 58.3627 24.6169 57.896 23.7419 57.8377C22.8378 57.7793 21.9918 58.1877 21.2918 58.9168C17.0627 63.4377 13.8544 63.0585 12.3085 62.4752C10.7335 61.8627 8.07935 59.8502 8.07935 53.3752V20.5335C8.07935 7.58353 11.8127 3.646 24.0335 3.646H46.0543C58.2751 3.646 62.0085 7.58353 62.0085 20.5335V32.9585C62.0085 34.1543 61.0168 35.146 59.821 35.146C58.6251 35.146 57.6335 34.1543 57.6335 32.9585V20.5335C57.6335 10.0044 55.796 8.021 46.0543 8.021H24.0335C14.2918 8.021 12.4543 10.0044 12.4543 20.5335V53.3752C12.4543 56.4377 13.2127 58.1293 13.9127 58.3918C14.4377 58.596 15.8669 58.3043 18.0836 55.9418C19.6877 54.2502 21.7877 53.346 23.9752 53.4627C26.1335 53.5793 28.1752 54.7168 29.546 56.5543L32.521 60.4918C33.2501 61.4543 33.046 62.8252 32.0835 63.5543C31.646 63.8752 31.1793 63.9918 30.7418 63.9918Z" fill="#F2FAFA"/>
<path d="M46.6668 22.6045H23.3335C22.1377 22.6045 21.146 21.6128 21.146 20.417C21.146 19.2212 22.1377 18.2295 23.3335 18.2295H46.6668C47.8627 18.2295 48.8543 19.2212 48.8543 20.417C48.8543 21.6128 47.8627 22.6045 46.6668 22.6045Z" fill="#F2FAFA"/>
<path d="M43.75 34.271H26.25C25.0542 34.271 24.0625 33.2793 24.0625 32.0835C24.0625 30.8877 25.0542 29.896 26.25 29.896H43.75C44.9458 29.896 45.9375 30.8877 45.9375 32.0835C45.9375 33.2793 44.9458 34.271 43.75 34.271Z" fill="#03A6A6"/>
<path d="M43.2255 63.5252C42.1172 63.5252 41.0672 63.1168 40.3089 62.3585C39.4047 61.4543 38.9964 60.1418 39.2005 58.771L39.7547 54.8335C39.9005 53.8127 40.513 52.5877 41.2422 51.8585L51.5669 41.5335C52.9669 40.1335 54.338 39.4043 55.8255 39.2585C57.6339 39.0835 59.4419 39.8418 61.1336 41.5335C62.8252 43.2252 63.5836 45.0043 63.4086 46.8418C63.2627 48.3002 62.5044 49.7002 61.1336 51.1002L50.8089 61.4252C50.0797 62.1543 48.8544 62.7668 47.8336 62.9127L43.8961 63.4668C43.6627 63.496 43.4589 63.5252 43.2255 63.5252ZM56.3211 43.6043C56.2919 43.6043 56.2627 43.6043 56.2336 43.6043C55.8252 43.6335 55.2711 44.0127 54.6586 44.6252L44.3339 54.9502C44.2464 55.0377 44.1002 55.3293 44.1002 55.446L43.5755 59.0918L47.2214 58.5668C47.338 58.5377 47.6294 58.3918 47.7169 58.3043L58.0419 47.9793C58.6544 47.3377 59.0336 46.8127 59.0627 46.4043C59.1214 45.821 58.5377 45.121 58.0419 44.6252C57.5752 44.1585 56.9044 43.6043 56.3211 43.6043Z" fill="#03A6A6"/>
<path d="M58.1004 53.2292C57.8962 53.2292 57.6921 53.2 57.5171 53.1417C53.6671 52.0625 50.6046 49 49.5254 45.15C49.2046 43.9833 49.8754 42.7875 51.0421 42.4375C52.2087 42.1167 53.4046 42.7875 53.7254 43.9542C54.3962 46.3458 56.2921 48.2417 58.6837 48.9125C59.8504 49.2333 60.5212 50.4583 60.2004 51.625C59.9379 52.5875 59.0629 53.2292 58.1004 53.2292Z" fill="#03A6A6"/>
</svg>
