<svg width="70" height="70" viewBox="0 0 70 70" fill="none" xmlns="http://www.w3.org/2000/svg">
<path d="M30.8009 66.2377C27.6508 66.2377 24.4716 65.3335 22.0216 63.496L9.53831 54.1627C6.24248 51.7127 3.67578 46.5502 3.67578 42.4085V20.796C3.67578 16.3335 6.94251 11.5793 11.1425 10.0043L25.6675 4.5501C28.555 3.47093 33.0759 3.47093 35.9634 4.5501L50.4593 10.0043C53.8718 11.2876 56.7593 14.7001 57.6926 18.4918C57.8384 19.1334 57.6926 19.8335 57.2843 20.3585C56.8759 20.8835 56.2343 21.2042 55.5634 21.2042L32.4926 21.2334C28.7883 21.4668 27.8841 22.0793 27.8841 27.4752V43.3127C27.8841 48.8835 28.6133 49.5835 34.2718 49.5835H51.5384C52.4426 49.5835 53.2593 50.1377 53.5801 50.9835C53.9009 51.8293 53.6676 52.7919 52.9968 53.4044C52.6759 53.6669 52.4134 53.9294 52.0926 54.1627L39.6093 63.5252C37.1009 65.3335 33.9509 66.2377 30.8009 66.2377ZM30.8009 8.13763C29.4884 8.13763 28.1467 8.31263 27.1842 8.69179L12.6591 14.146C10.2091 15.0793 8.02164 18.2001 8.02164 20.8543V42.4669C8.02164 45.2085 9.94664 49.0585 12.1341 50.6918L24.6175 60.0252C27.9716 62.5044 33.6009 62.5044 36.9551 60.0252L45.0343 53.9877H34.2426C26.1925 53.9877 23.48 51.3044 23.48 43.3419V27.5043C23.48 21.2918 24.9675 17.3543 32.3468 16.8876L34.2426 16.8584H52.1801C51.3051 15.6043 50.1384 14.6126 48.9134 14.146L34.4176 8.69179C33.4259 8.31263 32.1134 8.13763 30.8009 8.13763Z" fill="#F2FAFA"/>
<path d="M64.1675 34.9126H25.6675C24.4716 34.9126 23.48 33.9209 23.48 32.7251C23.48 31.5293 24.4716 30.5376 25.6675 30.5376H64.1675C65.3633 30.5376 66.355 31.5293 66.355 32.7251C66.355 33.9209 65.3633 34.9126 64.1675 34.9126Z" fill="#F2FAFA"/>
<path d="M55.5925 53.9584H34.2425C26.1925 53.9584 23.48 51.2751 23.48 43.3125V27.475C23.48 21.2625 24.9675 17.325 32.3467 16.8583L34.2425 16.8291H55.5925C63.6425 16.8291 66.355 19.5125 66.355 27.475V43.6626C66.2967 51.3626 63.5842 53.9584 55.5925 53.9584ZM34.2425 21.2041L32.4633 21.2333C28.7591 21.4666 27.855 22.0792 27.855 27.475V43.3125C27.855 48.8834 28.5841 49.5834 34.2425 49.5834H55.5925C61.1633 49.5834 61.9217 48.8542 61.98 43.6626V27.5041C61.98 21.9333 61.2509 21.2333 55.5925 21.2333H34.2425V21.2041Z" fill="#F2FAFA"/>
<path d="M36.8973 46.6958H32.989C31.7932 46.6958 30.8015 45.7041 30.8015 44.5083C30.8015 43.3125 31.7932 42.3208 32.989 42.3208H36.8973C38.0932 42.3208 39.0848 43.3125 39.0848 44.5083C39.0848 45.7041 38.1223 46.6958 36.8973 46.6958Z" fill="#F2FAFA"/>
<path d="M52.56 46.6958H43.0225C41.8266 46.6958 40.835 45.7041 40.835 44.5083C40.835 43.3125 41.8266 42.3208 43.0225 42.3208H52.56C53.7558 42.3208 54.7475 43.3125 54.7475 44.5083C54.7475 45.7041 53.785 46.6958 52.56 46.6958Z" fill="#03A6A6"/>
</svg>
