<?xml version="1.0"?>
<svg xmlns="http://www.w3.org/2000/svg" width="101.758" height="72.837" viewBox="0 0 101.758 72.837">
    <defs>
        <style>
            .cls-1{fill:#ff4521}
        </style>
    </defs>
    <g id="Group_35374" data-name="Group 35374" transform="translate(-1141.076 -1620.312)">
        <g id="Group_35369" data-name="Group 35369" transform="translate(1209.302 1640.435)">
            <g id="smart">
                <g id="Group_35367" data-name="Group 35367" transform="translate(5.004 6.776)">
                    <g id="Group_35365" data-name="Group 35365">
                        <path id="Path_86311" d="M1213.078 1641.327h-20.813a1.355 1.355 0 0 1 0-2.71h20.813a1.355 1.355 0 0 1 0 2.71z" class="cls-1" data-name="Path 86311" transform="translate(-1190.91 -1638.617)"/>
                    </g>
                    <g id="Group_35366" data-name="Group 35366" transform="translate(0 36.054)">
                        <path id="Path_86312" d="M1213.078 1665.862h-20.813a1.355 1.355 0 1 1 0-2.71h20.813a1.355 1.355 0 1 1 0 2.71z" class="cls-1" data-name="Path 86312" transform="translate(-1190.91 -1663.152)"/>
                    </g>
                </g>
                <g id="Group_35368" data-name="Group 35368">
                    <path id="Path_86313" d="M1216.149 1686.72h-23.76a4.89 4.89 0 0 1-4.884-4.885v-42.945a4.89 4.89 0 0 1 4.884-4.885h23.761a4.891 4.891 0 0 1 4.886 4.885v42.944a4.893 4.893 0 0 1-4.887 4.886zm-23.76-50a2.178 2.178 0 0 0-2.175 2.175v42.945a2.178 2.178 0 0 0 2.175 2.175h23.76a2.179 2.179 0 0 0 2.176-2.176v-42.944a2.176 2.176 0 0 0-2.175-2.175z" class="cls-1" data-name="Path 86313" transform="translate(-1187.505 -1634.006)"/>
                </g>
            </g>
        </g>
        <g id="Group_35373" data-name="Group 35373" transform="translate(1141.076 1620.312)">
            <g id="tv">
                <g id="Group_35370" data-name="Group 35370">
                    <path id="Path_86314" d="M1210.657 1678.052h-58.488a11.107 11.107 0 0 1-11.093-11.093v-40.679a5.985 5.985 0 0 1 5.99-5.968h76.724a5.975 5.975 0 0 1 5.968 5.968v11.24a1.356 1.356 0 0 1-2.711 0v-11.24a3.26 3.26 0 0 0-3.256-3.257h-76.724a3.272 3.272 0 0 0-3.28 3.257v40.679a8.392 8.392 0 0 0 8.383 8.382h58.488a1.356 1.356 0 0 1 0 2.711z" class="cls-1" data-name="Path 86314" transform="translate(-1141.076 -1620.312)"/>
                </g>
                <g id="Group_35371" data-name="Group 35371" transform="translate(23.824 59.299)">
                    <path id="Path_86315" d="M1196.984 1674.2h-38.34a1.355 1.355 0 0 1-1.355-1.355 7.352 7.352 0 0 1 1.762-4.774l2.179-2.552-.013-3.5a1.356 1.356 0 0 1 1.35-1.361h.006a1.356 1.356 0 0 1 1.355 1.35l.015 4a1.359 1.359 0 0 1-.325.885l-2.507 2.933a4.645 4.645 0 0 0-.91 1.66h35.225a4.644 4.644 0 0 0-.911-1.66l-2.507-2.933a1.364 1.364 0 0 1-.325-.877l-.007-4a1.357 1.357 0 0 1 1.352-1.358 1.355 1.355 0 0 1 1.355 1.354l.007 3.5 2.182 2.555a7.357 7.357 0 0 1 1.763 4.774 1.355 1.355 0 0 1-1.351 1.359z" class="cls-1" data-name="Path 86315" transform="translate(-1157.289 -1660.666)"/>
                </g>
                <g id="Group_35372" data-name="Group 35372" transform="translate(6.577 46.551)">
                    <path id="Path_86316" d="M1208.556 1654.7h-61.649a1.355 1.355 0 0 1 0-2.709h61.649a1.355 1.355 0 0 1 0 2.709z" class="cls-1" data-name="Path 86316" transform="translate(-1145.552 -1651.991)"/>
                </g>
            </g>
        </g>
    </g>
</svg>
