<svg width="64" height="64" viewBox="0 0 64 64" fill="none" xmlns="http://www.w3.org/2000/svg">
<path d="M26.9601 48.4004H16.8535C15.7602 48.4004 14.8535 47.4937 14.8535 46.4004V32.747C14.8535 29.9737 17.1202 27.707 19.8935 27.707H26.9601C28.0535 27.707 28.9601 28.6137 28.9601 29.707V46.3737C28.9601 47.4937 28.0535 48.4004 26.9601 48.4004ZM18.8535 44.4004H24.9601V31.7337H19.8935C19.3335 31.7337 18.8535 32.187 18.8535 32.7737V44.4004Z" fill="#F27457"/>
<path d="M37.0403 48.4002H26.9336C25.8403 48.4002 24.9336 47.4935 24.9336 46.4002V20.6401C24.9336 17.8668 27.2003 15.6001 29.9736 15.6001H34.0269C36.8003 15.6001 39.0669 17.8668 39.0669 20.6401V46.4002C39.0403 47.4935 38.1603 48.4002 37.0403 48.4002ZM35.0669 44.4002V20.6401C35.0669 20.0801 34.6136 19.6001 34.0269 19.6001H29.9736C29.4136 19.6001 28.9336 20.0535 28.9336 20.6401V44.4002H35.0669Z" fill="#F27457"/>
<path d="M47.1477 48.3999H37.041C35.9477 48.3999 35.041 47.4933 35.041 46.3999V34.2666C35.041 33.1733 35.9477 32.2666 37.041 32.2666H44.1077C46.881 32.2666 49.1477 34.5333 49.1477 37.3066V46.3999C49.1477 47.4933 48.2677 48.3999 47.1477 48.3999ZM39.041 44.3999H45.1477V37.3066C45.1477 36.7466 44.6944 36.2666 44.1077 36.2666H39.041V44.3999Z" fill="#F27457"/>
<path d="M40.0007 60.6668H24.0007C9.52065 60.6668 3.33398 54.4802 3.33398 40.0002V24.0002C3.33398 9.52016 9.52065 3.3335 24.0007 3.3335H40.0007C54.4807 3.3335 60.6673 9.52016 60.6673 24.0002V40.0002C60.6673 54.4802 54.4807 60.6668 40.0007 60.6668ZM24.0007 7.3335C11.7073 7.3335 7.33398 11.7068 7.33398 24.0002V40.0002C7.33398 52.2935 11.7073 56.6668 24.0007 56.6668H40.0007C52.294 56.6668 56.6673 52.2935 56.6673 40.0002V24.0002C56.6673 11.7068 52.294 7.3335 40.0007 7.3335H24.0007Z" fill="#F27457"/>
</svg>
