<svg width="64" height="64" viewBox="0 0 64 64" fill="none" xmlns="http://www.w3.org/2000/svg">
<path d="M28.9073 36.1069H24.9073C21.8407 36.1069 19.3607 33.5469 19.3607 30.3736C19.3607 29.2802 20.2673 28.3736 21.3607 28.3736C22.454 28.3736 23.3607 29.2802 23.3607 30.3736C23.3607 31.3336 24.054 32.1069 24.9073 32.1069H28.9073C29.5207 32.1069 30.0007 31.5469 30.0007 30.8536C30.0007 29.9202 29.8407 29.8669 29.2273 29.6536L22.8007 27.4136C20.4807 26.6135 19.334 24.9869 19.334 22.4535C19.334 19.5735 21.6273 17.2002 24.4273 17.2002H28.4273C31.494 17.2002 33.974 19.7602 33.974 22.9335C33.974 24.0269 33.0673 24.9335 31.974 24.9335C30.8807 24.9335 29.974 24.0269 29.974 22.9335C29.974 21.9735 29.2807 21.2002 28.4273 21.2002H24.4273C23.814 21.2002 23.334 21.7602 23.334 22.4535C23.334 23.3869 23.494 23.4402 24.1073 23.6535L30.534 25.8935C32.854 26.7202 33.974 28.3469 33.974 30.8536C34.0007 33.7602 31.7073 36.1069 28.9073 36.1069Z" fill="#F27457"/>
<path d="M26.668 38.2399C25.5746 38.2399 24.668 37.3333 24.668 36.2399V34.2666C24.668 33.1733 25.5746 32.2666 26.668 32.2666C27.7613 32.2666 28.668 33.1733 28.668 34.2666V36.2399C28.668 37.3599 27.7613 38.2399 26.668 38.2399Z" fill="#F27457"/>
<path d="M26.668 21.1733C25.5746 21.1733 24.668 20.2666 24.668 19.1733V17.0933C24.668 15.9999 25.5746 15.0933 26.668 15.0933C27.7613 15.0933 28.668 15.9999 28.668 17.0933V19.1733C28.668 20.2666 27.7613 21.1733 26.668 21.1733Z" fill="#F27457"/>
<path d="M26.6407 49.92C13.7873 49.92 3.33398 39.4667 3.33398 26.6133C3.33398 13.76 13.7873 3.30664 26.6407 3.30664C39.494 3.30664 49.9473 13.76 49.9473 26.6133C49.9473 39.4667 39.4673 49.92 26.6407 49.92ZM26.6407 7.33331C16.0007 7.33331 7.33398 16 7.33398 26.64C7.33398 37.28 16.0007 45.92 26.6407 45.92C37.2807 45.92 45.9473 37.2533 45.9473 26.6133C45.9473 15.9733 37.2807 7.33331 26.6407 7.33331Z" fill="#F27457"/>
<path d="M45.3874 60.5864C40.454 60.5864 35.814 58.1864 32.9607 54.1331C32.3207 53.2264 32.534 51.9731 33.4407 51.3331C34.3474 50.6931 35.6007 50.9064 36.2407 51.8131C38.3474 54.7998 41.7607 56.5598 45.3874 56.5598C51.574 56.5598 56.5874 51.5464 56.5874 45.3598C56.5874 41.7598 54.8274 38.3464 51.894 36.2398C50.9874 35.5998 50.8007 34.3464 51.4407 33.4398C52.0807 32.5331 53.334 32.3464 54.2407 32.9864C58.214 35.8398 60.5874 40.4531 60.5874 45.3598C60.5874 53.7864 53.7874 60.5864 45.3874 60.5864Z" fill="#F27457"/>
</svg>
