<svg width="64" height="64" viewBox="0 0 64 64" fill="none" xmlns="http://www.w3.org/2000/svg">
<path d="M34.8007 43.3335H29.7873C26.2407 43.3335 23.334 40.3468 23.334 36.6668C23.334 35.5735 24.2407 34.6668 25.334 34.6668C26.4273 34.6668 27.334 35.5735 27.334 36.6668C27.334 38.1335 28.4273 39.3335 29.7873 39.3335H34.8007C35.8407 39.3335 36.6673 38.4002 36.6673 37.2535C36.6673 35.8135 36.2673 35.6002 35.3607 35.2802L27.334 32.4802C25.6273 31.8668 23.334 30.6402 23.334 26.7202C23.334 23.3868 25.974 20.6401 29.2007 20.6401H34.214C37.7607 20.6401 40.6673 23.6268 40.6673 27.3068C40.6673 28.4002 39.7607 29.3068 38.6673 29.3068C37.574 29.3068 36.6673 28.4002 36.6673 27.3068C36.6673 25.8401 35.574 24.6401 34.214 24.6401H29.2007C28.1607 24.6401 27.334 25.5735 27.334 26.7202C27.334 28.1602 27.734 28.3735 28.6407 28.6935L36.6673 31.4935C38.374 32.1068 40.6673 33.3335 40.6673 37.2535C40.6673 40.6135 38.0273 43.3335 34.8007 43.3335Z" fill="#F27457"/>
<path d="M32 46C30.9067 46 30 45.0933 30 44V20C30 18.9067 30.9067 18 32 18C33.0933 18 34 18.9067 34 20V44C34 45.0933 33.0933 46 32 46Z" fill="#F27457"/>
<path d="M32.0007 60.6668C16.1873 60.6668 3.33398 47.8135 3.33398 32.0002C3.33398 16.1868 16.1873 3.3335 32.0007 3.3335C33.094 3.3335 34.0007 4.24016 34.0007 5.3335C34.0007 6.42683 33.094 7.3335 32.0007 7.3335C18.4007 7.3335 7.33398 18.4002 7.33398 32.0002C7.33398 45.6002 18.4007 56.6668 32.0007 56.6668C45.6007 56.6668 56.6673 45.6002 56.6673 32.0002C56.6673 30.9068 57.574 30.0002 58.6673 30.0002C59.7607 30.0002 60.6673 30.9068 60.6673 32.0002C60.6673 47.8135 47.814 60.6668 32.0007 60.6668Z" fill="#F27457"/>
<path d="M58.6667 18.0002C57.5733 18.0002 56.6667 17.0935 56.6667 16.0002V7.3335H48C46.9067 7.3335 46 6.42683 46 5.3335C46 4.24016 46.9067 3.3335 48 3.3335H58.6667C59.76 3.3335 60.6667 4.24016 60.6667 5.3335V16.0002C60.6667 17.0935 59.76 18.0002 58.6667 18.0002Z" fill="#F27457"/>
<path d="M45.3332 20.667C44.8265 20.667 44.3198 20.4803 43.9198 20.0803C43.1465 19.307 43.1465 18.027 43.9198 17.2537L57.2532 3.92033C58.0265 3.147 59.3065 3.147 60.0798 3.92033C60.8532 4.69367 60.8532 5.97367 60.0798 6.747L46.7465 20.0803C46.3465 20.4803 45.8398 20.667 45.3332 20.667Z" fill="#F27457"/>
</svg>
